# xmcd
#
# Track frame offsets:
#       150
#       20729
#       39262
#       55310
#       70815
#       88518
#       109127
#       133336
#       154106
#       173564
#       186035
#       203299
#       246650
#
# Disc length: 3542 seconds
#
# Revision: 0
# Processed by: cddbd v1.4PL0 Copyright (c) Steve Scherf et al.
# Submitted via: WhereIsIt 3.53
#
DISCID=ae0dd40d
DTITLE=Валерий Ободзинский - Колдовские ночи
DYEAR=1999
DGENRE=
TTITLE0=Валерий Ободзинский - Такая ночь
TTITLE1=Валерий Ободзинский - Я не хочу тебя терять
TTITLE2=Валерий Ободзинский - Только с тобой
TTITLE3=Валерий Ободзинский - Никогда
TTITLE4=Валерий Ободзинский - Встреча
TTITLE5=Валерий Ободзинский - Лесная колдунья
TTITLE6=Валерий Ободзинский - Синеокая бездна
TTITLE7=Валерий Ободзинский - песня из к/ф "Золото Маккены"
TTITLE8=Валерий Ободзинский - Колдовство
TTITLE9=Валерий Ободзинский - Анна
TTITLE10=Валерий Ободзинский - Последние астры
TTITLE11=Валерий Ободзинский - Поппури
TTITLE12=Валерий Ободзинский - Снился мне сад
EXTD=
EXTT0=
EXTT1=
EXTT2=
EXTT3=
EXTT4=
EXTT5=
EXTT6=
EXTT7=
EXTT8=
EXTT9=
EXTT10=
EXTT11=
EXTT12=
PLAYORDER=
